<?xml version="1.0" encoding="utf-8"?>
<!-- Generator: Adobe Illustrator 23.0.1, SVG Export Plug-In . SVG Version: 6.00 Build 0)  -->
<svg version="1.1" id="Capa_1" xmlns="http://www.w3.org/2000/svg" xmlns:xlink="http://www.w3.org/1999/xlink" x="0px" y="0px"
	 viewBox="0 0 305.6 215.1" style="enable-background:new 0 0 305.6 215.1;" xml:space="preserve">
<style type="text/css">
	.st0{fill:#0C0101;}
</style>
<title>correo-electronico-white</title>
<path class="st0" d="M24.8,215c-24.5,0-0.4-24.8-0.4-24.8l62.4-68.5c6.1-6.7,17.8-16.8,24.6-11.2s16,16.9,22.4,23.3l12.9,12.9
	c6.9,6.1,12.2,0,12.2,0l13.2-13c6.4-6.3,15.6-17.4,22.5-22.5s18.5,4.6,24.6,11.3l62,68.5c24.5,24.1,0.4,24.1,0.4,24.1L24.8,215z
	 M35.4,158.7c-6.1,6.7-14.9,18.3-20.9,25C7.7,191.3,0,197,0,183.7L0.3,50c0-9-0.2-26.2,5.9-23.1c2.3,1.2,5.4,3.5,9.7,7.8L66.4,76
	c7,5.7,16.8,12.7,20,17.3c2,2.9,3,6.3,0,9.3L35.4,158.7z M171.4,111.2c-7,5.7-14.5,13.8-18.4,13.8s-11.6-7.9-18.6-13.6L24.6,22.3
	c-7-5.7-19-17.1-13.1-20.2C15.9,0,23.5,0,23.5,0h258c23.2,0,11.4,11.5,11.4,11.5L171.4,111.2z M291.1,183.7
	c-6-6.7-14.9-18.3-20.9-25l-51-56c-3-3-2-6.4,0-9.3c3.2-4.6,13-11.6,20-17.3l37.9-31c7-5.7,16.1-15,22.3-18.1s5.9,14.1,5.9,23.1
	l0.3,133.7C305.6,197,297.9,191.3,291.1,183.7z"/>
</svg>
