<?xml version="1.0" encoding="utf-8"?>
<!-- Generator: Adobe Illustrator 23.0.1, SVG Export Plug-In . SVG Version: 6.00 Build 0)  -->
<svg version="1.1" id="Capa_1" xmlns="http://www.w3.org/2000/svg" xmlns:xlink="http://www.w3.org/1999/xlink" x="0px" y="0px"
	 viewBox="0 0 512 352" style="enable-background:new 0 0 512 352;" xml:space="preserve">
<style type="text/css">
	.st0{fill:#0C0101;}
</style>
<title>youtube-white</title>
<path class="st0" d="M490.2,33.9c-13.9-24.7-29-29.3-59.6-31C399.9,0.9,322.9,0,256.1,0s-144,0.9-174.6,2.9
	c-30.6,1.8-45.7,6.3-59.8,31C7.4,58.6,0,101.1,0,175.9v0.3c0,74.5,7.4,117.3,21.7,141.7c14,24.7,29.1,29.2,59.7,31.3
	c30.6,1.8,107.8,2.8,174.7,2.8s143.9-1.1,174.6-2.8c30.7-2.1,45.8-6.6,59.6-31.3c14.4-24.4,21.7-67.2,21.7-141.7v-0.3
	C512,101.1,504.7,58.6,490.2,33.9z M192,272V80l160,96L192,272z"/>
</svg>
